<svg width="24" height="24" viewBox="0 0 24 24" fill="none" xmlns="http://www.w3.org/2000/svg">
<g clip-path="url(#clip0_142_37817)">
<path d="M19.6911 15.9612V17.7087C19.6911 18.9956 18.6479 20.0388 17.361 20.0388H15.73M4.3125 15.9612V17.7087C4.3125 18.9956 5.35573 20.0388 6.6426 20.0388H8.15716M4.3125 8.15534V6.75728C4.3125 5.47042 5.35573 4.42719 6.6426 4.42719H8.15716M19.6911 8.15534V6.75728C19.6911 5.47042 18.6479 4.42719 17.361 4.42719H15.73M4.3125 13.5437V12.0583V10.5728M19.6911 13.5437V12.0583V10.5728M13.2542 4.42719H11.7106H10.3999M13.2542 20.0388H11.7106H10.3999M7.80765 14.9126L10.6234 9.36906C10.6386 9.33919 10.6692 9.32039 10.7027 9.32039C10.7372 9.32039 10.7685 9.34024 10.7832 9.37135L13.3999 14.9126M9.2057 13.5146H11.7688M15.963 14.9126V9.32039M19.6911 15.8447H21.3222M8.27367 20.0388V21.9029" stroke="#409EFF" stroke-width="1.39806" stroke-linecap="round"/>
<path d="M4.30939 15.8447H2.44531" stroke="#409EFF" stroke-width="1.39806" stroke-linecap="round" stroke-linejoin="round"/>
<path d="M8.27344 4.42719V2.56311" stroke="#409EFF" stroke-width="1.39806" stroke-linecap="round"/>
<path d="M19.6875 8.1554H21.3186" stroke="#409EFF" stroke-width="1.39806" stroke-linecap="round" stroke-linejoin="round"/>
<path d="M15.7266 20.0389V21.903" stroke="#409EFF" stroke-width="1.39806" stroke-linecap="round"/>
<path d="M20.622 11.4175H19.923V12.8155H20.622V11.4175ZM23.1851 12.8155C23.5712 12.8155 23.8842 12.5026 23.8842 12.1165C23.8842 11.7304 23.5712 11.4175 23.1851 11.4175V12.8155ZM20.622 12.8155H23.1851V11.4175H20.622V12.8155ZM12.4667 20.7379V20.0388H11.0686V20.7379H12.4667ZM11.0686 23.301C11.0686 23.6871 11.3816 24 11.7677 24C12.1537 24 12.4667 23.6871 12.4667 23.301H11.0686ZM11.0686 20.7379V23.301H12.4667V20.7379H11.0686ZM3.37932 11.4175H4.07835V12.8155H3.37932V11.4175ZM0.816217 12.8155C0.430143 12.8155 0.117188 12.5026 0.117188 12.1165C0.117188 11.7304 0.430143 11.4175 0.816217 11.4175V12.8155ZM3.37932 12.8155H0.816217V11.4175H3.37932V12.8155ZM12.4667 3.26214V3.96117H11.0686V3.26214H12.4667ZM11.0686 0.699029C11.0686 0.312955 11.3816 0 11.7677 0C12.1537 0 12.4667 0.312955 12.4667 0.699029H11.0686ZM11.0686 3.26214V0.699029H12.4667V3.26214H11.0686Z" fill="#409EFF"/>
<path d="M4.30939 8.1554H2.44531" stroke="#409EFF" stroke-width="1.39806" stroke-linecap="round" stroke-linejoin="round"/>
<path d="M15.7266 4.42719V2.56311" stroke="#409EFF" stroke-width="1.39806" stroke-linecap="round"/>
</g>
<defs>
<clipPath id="clip0_142_37817">
<rect width="24" height="24" fill="white"/>
</clipPath>
</defs>
</svg>
